<?xml version="1.0" encoding="UTF-8"?>
<svg width="21px" height="18px" viewBox="0 0 21 18" version="1.1" xmlns="http://www.w3.org/2000/svg" xmlns:xlink="http://www.w3.org/1999/xlink">
    <!-- Generator: Sketch 55.2 (78181) - https://sketchapp.com -->
    <title>breakfast</title>
    <desc>Created with Sketch.</desc>
    <g id="breakfast--Page-1" stroke="none" stroke-width="1" fill="none" fill-rule="evenodd">
        <g id="breakfast--Artboard" transform="translate(-291.000000, -116.000000)">
            <g id="breakfast--2.-Hotel-/-Filled-/-Amenities-/-Breakfast" transform="translate(289.500000, 113.000000)">
                <rect id="breakfast--Guide" fill-opacity="0" fill="#F2F2F2" x="0" y="0" width="24" height="24"></rect>
                <path d="M16.12,9.5 L16.12,5.25 L3.62,5.25 L3.62,9.5 L16.12,9.5 Z M2.12,3.75 L19.12,3.75 C20.6387831,3.75 21.87,4.98121694 21.87,6.5 L21.87,8.25 C21.87,9.76878306 20.6387831,11 19.12,11 L17.62,11 L17.62,11.5 C17.62,14.6756373 15.0456373,17.25 11.87,17.25 L7.87,17.25 C4.69436269,17.25 2.12,14.6756373 2.12,11.5 L2.12,3.75 Z M17.62,5.25 L17.62,9.5 L19.12,9.5 C19.8103559,9.5 20.37,8.94035594 20.37,8.25 L20.37,6.5 C20.37,5.80964406 19.8103559,5.25 19.12,5.25 L17.62,5.25 Z M2.87,20.25 C2.45578644,20.25 2.12,19.9142136 2.12,19.5 C2.12,19.0857864 2.45578644,18.75 2.87,18.75 L16.87,18.75 C17.2842136,18.75 17.62,19.0857864 17.62,19.5 C17.62,19.9142136 17.2842136,20.25 16.87,20.25 L2.87,20.25 Z" id="breakfast--Breakfast" fill="#646669"></path>
            </g>
        </g>
    </g>
</svg>