<?xml version="1.0" encoding="UTF-8"?>
<svg width="20px" height="16px" viewBox="0 0 20 16" version="1.1" xmlns="http://www.w3.org/2000/svg" xmlns:xlink="http://www.w3.org/1999/xlink">
    <!-- Generator: Sketch 55.2 (78181) - https://sketchapp.com -->
    <title>hair_dryer</title>
    <desc>Created with Sketch.</desc>
    <g id="hair_dryer--Page-1" stroke="none" stroke-width="1" fill="none" fill-rule="evenodd">
        <g id="hair_dryer--Artboard" transform="translate(-80.000000, -117.000000)">
            <g id="hair_dryer--2.-Hotel-/-Filled-/-Amenities-/-Hair-Dryer" transform="translate(78.000000, 113.000000)">
                <rect id="hair_dryer--Guide" fill-opacity="0" fill="#F2F2F2" x="0" y="0" width="24" height="24"></rect>
                <path d="M7.01,4 L14.9759258,5.28571429 L14.9759258,11.7142857 L7.01,13 L6.51,13 C4.02471863,13 2.01,10.9852814 2.01,8.5 C2.01,6.01471863 4.02471863,4 6.51,4 L7.01,4 Z M6.47592583,9.99118095 C7.30435295,9.99118095 7.97592583,9.31960808 7.97592583,8.49118095 C7.97592583,7.66275383 7.30435295,6.99118095 6.47592583,6.99118095 C5.6474987,6.99118095 4.97592583,7.66275383 4.97592583,8.49118095 C4.97592583,9.31960808 5.6474987,9.99118095 6.47592583,9.99118095 Z M8.01,14.358534 L8.01,20 L6.01,20 C5.45771525,20 5.01,19.5522847 5.01,19 L5.01,14.3109738 C5.48942988,14.4343705 5.99205065,14.5 6.51,14.5 C6.92252175,14.5 7.33438708,14.4671147 7.74168233,14.4016565 L8.01,14.358534 Z M21.9759258,8.99662245 L21.9759258,10.5493837 C21.0025834,10.2625685 20.5271391,10.2878098 19.6733186,10.5371318 L19.5877052,10.5621967 C18.463289,10.8915422 17.7429612,10.9495988 16.4759258,10.650574 L16.4759258,9.10917312 L16.8152541,9.18944794 C17.8014045,9.42274136 18.2696148,9.38524961 19.1660646,9.12267628 L19.2528663,9.09726379 C20.235839,8.81022836 20.9426533,8.74772945 21.9759258,8.99662245 Z M21.9759258,5.99662245 L21.9759258,7.54938371 C21.0025834,7.26256847 20.5271391,7.28780979 19.6733186,7.53713179 L19.5877052,7.56219675 C18.463289,7.89154223 17.7429612,7.94959877 16.4759258,7.65057399 L16.4759258,6.10917312 L16.8152541,6.18944794 C17.8014045,6.42274136 18.2696148,6.38524961 19.1660646,6.12267628 L19.2528663,6.09726379 C20.235839,5.81022836 20.9426533,5.74772945 21.9759258,5.99662245 L21.9759258,5.99662245 Z" id="hair_dryer--Hair-Dryer" fill="#646669"></path>
            </g>
        </g>
    </g>
</svg>