<?xml version="1.0" encoding="UTF-8"?>
<svg width="21px" height="16px" viewBox="0 0 21 16" version="1.1" xmlns="http://www.w3.org/2000/svg" xmlns:xlink="http://www.w3.org/1999/xlink">
    <!-- Generator: Sketch 55.2 (78181) - https://sketchapp.com -->
    <title>king_bed</title>
    <desc>Created with Sketch.</desc>
    <g id="king_bed--Page-1" stroke="none" stroke-width="1" fill="none" fill-rule="evenodd">
        <g id="king_bed--Artboard" transform="translate(-79.000000, -72.000000)">
            <g id="king_bed--2.-Hotel-/-Filled-/-Amenities-/-King-Bed" transform="translate(77.500000, 68.000000)">
                <rect id="king_bed--Guide" fill-opacity="0" fill="#F2F2F2" x="0" y="0" width="24" height="24"></rect>
                <path d="M13,10 L11,10 L11,9 C11,8.44771525 10.5522847,8 10,8 L6,8 C5.44771525,8 5,8.44771525 5,9 L5,10 L3,10 L3,4.5 C3,4.22385763 3.22385763,4 3.5,4 L20.5,4 C20.7761424,4 21,4.22385763 21,4.5 L21,10 L19,10 L19,9 C19,8.44771525 18.5522847,8 18,8 L14,8 C13.4477153,8 13,8.44771525 13,9 L13,10 Z M19,18.5 L5,18.5 L5,20 L2.5,20 C2.22385763,20 2,19.7761424 2,19.5 L2,18.5 L2,13.5 C2,12.3954305 2.8954305,11.5 4,11.5 L20,11.5 C21.1045695,11.5 22,12.3954305 22,13.5 L22,18.5 L22,19.5 C22,19.7761424 21.7761424,20 21.5,20 L19,20 L19,18.5 Z" id="king_bed--King-Bed" fill="#646669"></path>
            </g>
        </g>
    </g>
</svg>