<?xml version="1.0" encoding="UTF-8"?>
<svg width="19px" height="18px" viewBox="0 0 19 18" version="1.1" xmlns="http://www.w3.org/2000/svg" xmlns:xlink="http://www.w3.org/1999/xlink">
    <!-- Generator: Sketch 55.2 (78181) - https://sketchapp.com -->
    <title>pet</title>
    <desc>Created with Sketch.</desc>
    <g id="pet--Page-1" stroke="none" stroke-width="1" fill="none" fill-rule="evenodd">
        <g id="pet--Artboard" transform="translate(-422.000000, -116.000000)">
            <g id="pet--2.-Hotel-/-Filled-/-Amenities-/-Pet" transform="translate(419.500000, 113.000000)">
                <rect id="pet--Guide" fill-opacity="0" fill="#F2F2F2" x="0" y="0" width="24" height="24"></rect>
                <path d="M15.1452734,10.2530752 L17.915418,13.7787138 C19.2802717,15.5158003 18.9785173,18.0304197 17.2414308,19.3952734 C16.5366886,19.9489994 15.6664003,20.25 14.7701446,20.25 L9.22985538,20.25 C7.02071638,20.25 5.22985538,18.459139 5.22985538,16.25 C5.22985538,15.3537444 5.53085597,14.483456 6.08458202,13.7787138 L8.85472664,10.2530752 C10.2195803,8.51598867 12.7341997,8.21423435 14.4712862,9.57908803 C14.7220087,9.77608428 14.9482771,10.0023527 15.1452734,10.2530752 Z M9,7.75 C7.8954305,7.75 7,6.8545695 7,5.75 C7,4.6454305 7.8954305,3.75 9,3.75 C10.1045695,3.75 11,4.6454305 11,5.75 C11,6.8545695 10.1045695,7.75 9,7.75 Z M4.6,11.9 C3.4954305,11.9 2.6,11.0045695 2.6,9.9 C2.6,8.7954305 3.4954305,7.9 4.6,7.9 C5.7045695,7.9 6.6,8.7954305 6.6,9.9 C6.6,11.0045695 5.7045695,11.9 4.6,11.9 Z M19.4,11.9 C18.2954305,11.9 17.4,11.0045695 17.4,9.9 C17.4,8.7954305 18.2954305,7.9 19.4,7.9 C20.5045695,7.9 21.4,8.7954305 21.4,9.9 C21.4,11.0045695 20.5045695,11.9 19.4,11.9 Z M15,7.75 C13.8954305,7.75 13,6.8545695 13,5.75 C13,4.6454305 13.8954305,3.75 15,3.75 C16.1045695,3.75 17,4.6454305 17,5.75 C17,6.8545695 16.1045695,7.75 15,7.75 Z" id="pet--Pet" fill="#646669"></path>
            </g>
        </g>
    </g>
</svg>