<?xml version="1.0" encoding="UTF-8"?>
<svg width="19px" height="17px" viewBox="0 0 19 17" version="1.1" xmlns="http://www.w3.org/2000/svg" xmlns:xlink="http://www.w3.org/1999/xlink">
    <!-- Generator: Sketch 55.2 (78181) - https://sketchapp.com -->
    <title>pool</title>
    <desc>Created with Sketch.</desc>
    <g id="pool--Page-1" stroke="none" stroke-width="1" fill="none" fill-rule="evenodd">
        <g id="pool--Artboard" transform="translate(-293.000000, -71.000000)">
            <g id="pool--2.-Hotel-/-Filled-/-Amenities-/-Pool" transform="translate(289.000000, 68.000000)">
                <rect id="pool--Guide" fill-opacity="0" fill="#F2F2F2" x="0" y="0" width="24" height="24"></rect>
                <path d="M4.41156561,18.604137 C4.04441633,18.4123708 3.90224027,17.9592802 4.09400649,17.592131 C4.2857727,17.2249817 4.73886323,17.0828056 5.10601251,17.2745718 C7.62643559,18.5910173 9.28349377,18.441046 12.9713477,17.1412491 C17.0174112,15.7152001 19.040296,15.5319835 22.0289335,17.0925306 C22.3961056,17.2842532 22.5383355,17.7373268 22.3466129,18.1044989 C22.1548903,18.4716709 21.7018167,18.6139008 21.3346446,18.4221783 C18.8143751,17.1061942 17.1575219,17.2562586 13.4695973,18.5560804 C9.42356155,19.9821197 7.40037719,20.1652271 4.41156561,18.604137 Z M8.20267808,12.6868263 L12.6138514,8.27565291 L9.95042282,5.61222429 L5.25,5.61222429 C4.55964406,5.61222429 4,5.05258023 4,4.36222429 C4,3.67186836 4.55964406,3.11222429 5.25,3.11222429 L10.0539762,3.11222429 C10.6507133,3.11222429 11.2230096,3.34927718 11.6449665,3.77123404 L18.3517618,10.4780293 C18.3577811,10.4840487 18.3637262,10.4901141 18.3695971,10.4962246 C16.7222411,10.4470323 14.9137069,10.8662169 12.4727311,11.7265472 C10.5005691,12.4216425 9.26562463,12.7349275 8.20267808,12.6868263 L8.20267808,12.6868263 Z M16.7971578,7.26776695 C15.8208471,6.29145622 15.8208471,4.70854378 16.7971578,3.73223305 C17.7734686,2.75592232 19.356381,2.75592232 20.3326917,3.73223305 C21.3090025,4.70854378 21.3090025,6.29145622 20.3326917,7.26776695 C19.356381,8.24407768 17.7734686,8.24407768 16.7971578,7.26776695 Z M4.41156561,14.604137 C4.04441633,14.4123708 3.90224027,13.9592802 4.09400649,13.592131 C4.2857727,13.2249817 4.73886323,13.0828056 5.10601251,13.2745718 C7.62643559,14.5910173 9.28349377,14.441046 12.9713477,13.1412491 C17.0174112,11.7152001 19.040296,11.5319835 22.0289335,13.0925306 C22.3961056,13.2842532 22.5383355,13.7373268 22.3466129,14.1044989 C22.1548903,14.4716709 21.7018167,14.6139008 21.3346446,14.4221783 C18.8143751,13.1061942 17.1575219,13.2562586 13.4695973,14.5560804 C9.42356155,15.9821197 7.40037719,16.1652271 4.41156561,14.604137 Z" id="pool--Pool" fill="#646669"></path>
            </g>
        </g>
    </g>
</svg>