<?xml version="1.0" encoding="UTF-8"?>
<svg width="20px" height="14px" viewBox="0 0 20 14" version="1.1" xmlns="http://www.w3.org/2000/svg" xmlns:xlink="http://www.w3.org/1999/xlink">
    <!-- Generator: Sketch 55.2 (78181) - https://sketchapp.com -->
    <title>queen_bed</title>
    <desc>Created with Sketch.</desc>
    <g id="queen_bed--Page-1" stroke="none" stroke-width="1" fill="none" fill-rule="evenodd">
        <g id="queen_bed--Artboard" transform="translate(-125.000000, -73.000000)">
            <g id="queen_bed--2.-Hotel-/-Filled-/-Amenities-/-Queen-Bed" transform="translate(123.000000, 68.000000)">
                <rect id="queen_bed--Guide" fill-opacity="0" fill="#F2F2F2" x="0" y="0" width="24" height="24"></rect>
                <path d="M13,10 L11,10 L11,9 C11,8.44771525 10.5522847,8 10,8 L7,8 C6.44771525,8 6,8.44771525 6,9 L6,10 L4,10 L4,5.5 C4,5.22385763 4.22385763,5 4.5,5 L19.5,5 C19.7761424,5 20,5.22385763 20,5.5 L20,10 L18,10 L18,9 C18,8.44771525 17.5522847,8 17,8 L14,8 C13.4477153,8 13,8.44771525 13,9 L13,10 Z M19,17.5 L5,17.5 L5,19 L2.5,19 C2.22385763,19 2,18.7761424 2,18.5 L2,17.5 L2,13.5 C2,12.3954305 2.8954305,11.5 4,11.5 L20,11.5 C21.1045695,11.5 22,12.3954305 22,13.5 L22,17.5 L22,18.5 C22,18.7761424 21.7761424,19 21.5,19 L19,19 L19,17.5 Z" id="queen_bed--Queen-Bed" fill="#646669"></path>
            </g>
        </g>
    </g>
</svg>