<?xml version="1.0" encoding="UTF-8"?>
<svg width="17px" height="12px" viewBox="0 0 17 12" version="1.1" xmlns="http://www.w3.org/2000/svg" xmlns:xlink="http://www.w3.org/1999/xlink">
    <!-- Generator: Sketch 55.2 (78181) - https://sketchapp.com -->
    <title>single_bed</title>
    <desc>Created with Sketch.</desc>
    <g id="single_bed--Page-1" stroke="none" stroke-width="1" fill="none" fill-rule="evenodd">
        <g id="single_bed--Artboard" transform="translate(-228.000000, -119.000000)">
            <g id="single_bed--2.-Hotel-/-Filled-/-Amenities-/-Single-Bed" transform="translate(224.500000, 113.000000)">
                <rect id="single_bed--Guide" fill-opacity="0" fill="#F2F2F2" x="0" y="0" width="24" height="24"></rect>
                <path d="M15,10 L15,9 C15,8.44771525 14.5522847,8 14,8 L10,8 C9.44771525,8 9,8.44771525 9,9 L9,10 L6,10 L6,6.5 C6,6.22385763 6.22385763,6 6.5,6 L17.5,6 C17.7761424,6 18,6.22385763 18,6.5 L18,10 L15,10 Z M17,16.5 L7,16.5 L7,18 L4.5,18 C4.22385763,18 4,17.7761424 4,17.5 L4,16.5 L4,13.5 C4,12.3954305 4.8954305,11.5 6,11.5 L18,11.5 C19.1045695,11.5 20,12.3954305 20,13.5 L20,16.5 L20,17.5 C20,17.7761424 19.7761424,18 19.5,18 L17,18 L17,16.5 Z" id="single_bed--Single-Bed" fill="#646669"></path>
            </g>
        </g>
    </g>
</svg>