<?xml version="1.0" encoding="UTF-8"?>
<svg width="20px" height="18px" viewBox="0 0 20 18" version="1.1" xmlns="http://www.w3.org/2000/svg" xmlns:xlink="http://www.w3.org/1999/xlink">
    <!-- Generator: Sketch 55.2 (78181) - https://sketchapp.com -->
    <title>utensils</title>
    <desc>Created with Sketch.</desc>
    <g id="utensils--Page-1" stroke="none" stroke-width="1" fill="none" fill-rule="evenodd">
        <g id="utensils--Artboard" transform="translate(-356.000000, -71.000000)">
            <g id="utensils--2.-Hotel-/-Filled-/-Amenities-/-Utensils" transform="translate(354.000000, 68.000000)">
                <rect id="utensils--Guide" fill-opacity="0" fill="#F2F2F2" x="0" y="0" width="24" height="24"></rect>
                <path d="M13.3404076,12.9188348 L18.7169318,18.2953589 C19.2050872,18.7835143 19.2050872,19.5749705 18.7169318,20.0631259 C18.2287764,20.5512812 17.4373202,20.5512812 16.9491649,20.0631259 L11.5726407,14.6866017 L5.69611652,20.5631259 C5.20796116,21.0512812 4.41650494,21.0512812 3.92834957,20.5631259 C3.44019421,20.0749705 3.44019421,19.2835143 3.92834957,18.7953589 L11.9735246,10.7501839 C11.3076458,9.35627418 11.5519789,7.63619567 12.7065242,6.48165043 L15.8885047,3.29966991 C16.1813979,3.0067767 16.6562716,3.0067767 16.9491649,3.29966991 C17.2420581,3.59256313 17.2420581,4.06743687 16.9491649,4.36033009 L14.6510678,6.65842712 L15.711728,7.7190873 L18.009825,5.42099026 C18.3027182,5.12809704 18.777592,5.12809704 19.0704852,5.42099026 C19.3633784,5.71388348 19.3633784,6.18875721 19.0704852,6.48165043 L16.7723882,8.77974747 L17.8330483,9.84040764 L20.1311454,7.5423106 C20.4240386,7.24941738 20.8989123,7.24941738 21.1918055,7.5423106 C21.4846988,7.83520382 21.4846988,8.31007755 21.1918055,8.60297077 L18.009825,11.7849513 C16.8552798,12.9394965 15.1352013,13.1838297 13.7412916,12.5179508 L13.3404076,12.9188348 L13.3404076,12.9188348 Z M3.75157288,3.33 L10.5140263,10.0924535 L7.68559921,12.9208806 L3.75157288,8.98685425 C2.18947571,7.42475708 2.18947571,4.89209717 3.75157288,3.33 Z" id="utensils--Utensils" fill="#646669"></path>
            </g>
        </g>
    </g>
</svg>