<?xml version="1.0" encoding="UTF-8"?>
<svg width="21px" height="20px" viewBox="0 0 21 20" version="1.1" xmlns="http://www.w3.org/2000/svg" xmlns:xlink="http://www.w3.org/1999/xlink">
    <!-- Generator: Sketch 55.2 (78181) - https://sketchapp.com -->
    <title>washing_machine</title>
    <desc>Created with Sketch.</desc>
    <g id="washing_machine--Page-1" stroke="none" stroke-width="1" fill="none" fill-rule="evenodd">
        <g id="washing_machine--Artboard" transform="translate(-125.000000, -115.000000)">
            <g id="washing_machine--2.-Hotel-/-Filled-/-Amenities-/-Dry-Cleaning" transform="translate(123.500000, 113.000000)">
                <rect id="washing_machine--Guide" fill-opacity="0" fill="#F2F2F2" x="0" y="0" width="24" height="24"></rect>
                <path d="M9.17070571,5 C9.58254212,6.16519237 10.6937812,7 12,7 C13.3062188,7 14.4174579,6.16519237 14.8292943,5 L15.8920641,5 C16.6170399,5 17.3283856,5.19703133 17.9500472,5.5700283 L22,8 L19.7239844,11.9421747 L18,11.3988898 L18,22 L6,22 L6,11.3988898 L4.27601563,11.9421747 L2,8 L6.04995284,5.5700283 C6.67161444,5.19703133 7.38296008,5 8.10793586,5 L9.17070571,5 Z M17.7958216,10.502919 L15.9890354,9.81096459 L15.297081,8.0041784 C15.249963,7.88119721 15.1317232,7.8 14.9998518,7.8 C14.8682768,7.8 14.750037,7.88119721 14.702919,8.0041784 L14.0109646,9.81096459 L12.2041784,10.502919 C12.0811972,10.550037 12,10.6682768 12,10.7998518 C12,10.9317232 12.0811972,11.049963 12.2041784,11.097081 L14.0109646,11.7890354 L14.702919,13.5958216 C14.750037,13.7188028 14.8682768,13.8 14.9998518,13.8 C15.1317232,13.8 15.249963,13.7188028 15.297081,13.5958216 L15.9890354,11.7890354 L17.7958216,11.097081 C17.9188028,11.049963 18,10.9317232 18,10.7998518 C18,10.6682768 17.9188028,10.550037 17.7958216,10.502919 Z M21.8638811,3.80194597 C21.9458685,3.83335803 22,3.91218452 22,3.99990122 C22,4.08781548 21.9458685,4.16664197 21.8638811,4.19805403 L20.6593569,4.65935694 L20.198054,5.86388107 C20.166642,5.94586852 20.0878155,6 19.9999012,6 C19.9121845,6 19.833358,5.94586852 19.801946,5.86388107 L19.3406431,4.65935694 L18.1361189,4.19805403 C18.0541315,4.16664197 18,4.08781548 18,3.99990122 C18,3.91218452 18.0541315,3.83335803 18.1361189,3.80194597 L19.3406431,3.34064306 L19.801946,2.13611893 C19.833358,2.05413148 19.9121845,2 19.9999012,2 C20.0878155,2 20.166642,2.05413148 20.198054,2.13611893 L20.6593569,3.34064306 L21.8638811,3.80194597 Z" id="washing_machine--Dry-Cleaning" fill="#646669"></path>
            </g>
        </g>
    </g>
</svg>