<?xml version="1.0" encoding="UTF-8"?>
<svg width="20px" height="14px" viewBox="0 0 20 14" version="1.1" xmlns="http://www.w3.org/2000/svg" xmlns:xlink="http://www.w3.org/1999/xlink">
    <!-- Generator: Sketch 55.2 (78181) - https://sketchapp.com -->
    <title>wifi</title>
    <desc>Created with Sketch.</desc>
    <g id="wifi--Page-1" stroke="none" stroke-width="1" fill="none" fill-rule="evenodd">
        <g id="wifi--Artboard" transform="translate(-421.000000, -73.000000)">
            <g id="wifi--1.-General-/-Filled-/-Amenities-/-Wifi" transform="translate(419.000000, 68.000000)">
                <rect id="wifi--Guide" fill-opacity="0" fill="#F2F2F2" x="0" y="0" width="24" height="24"></rect>
                <path d="M21.6954365,9.57728176 L20.6347763,10.6379419 C15.8508537,5.85401936 8.09458275,5.85401936 3.31066017,10.6379419 L2.25,9.57728176 C7.61970901,4.20757275 16.3257275,4.20757275 21.6954365,9.57728176 Z M19.5741161,11.6986021 L18.513456,12.7592623 C14.9011063,9.14691258 9.04433021,9.14691258 5.43198052,12.7592623 L4.37132034,11.6986021 C8.56945648,7.50046597 15.37598,7.50046597 19.5741161,11.6986021 Z M15.3314755,15.9412428 L13.3869318,17.8857864 C12.6058832,18.666835 11.3395533,18.666835 10.5585047,17.8857864 L8.61396103,15.9412428 C10.4689514,14.0862524 13.4764851,14.0862524 15.3314755,15.9412428 Z M17.4527958,13.8199224 L16.3921356,14.8805826 C13.9513588,12.4398058 9.99407768,12.4398058 7.55330086,14.8805826 L6.49264069,13.8199224 C9.51920395,10.7933592 14.4262325,10.7933592 17.4527958,13.8199224 Z" id="wifi--Wifi" fill="#646669"></path>
            </g>
        </g>
    </g>
</svg>